# xmcd
#
# Track frame offsets:
#	150
#	20645
#	37635
#	50082
#	74473
#	88421
#	105041
#	143109
#	158337
#	176853
#	197802
#	210814
#	231776
#	245774
#
# Disc length: 3590 seconds
#
# Revision: 1
# Processed by: cddbd v1.5.2PL0 Copyright (c) Steve Scherf et al.
# Submitted via: audiograbber 1.83.01
#
DISCID=b70e040e
DTITLE=Jimmy Buckley - Live In Concert (Vol. 2)
DYEAR=2006
DGENRE=
TTITLE0=Johnny Cash Medley
TTITLE1=I Can't Stop Loving You
TTITLE2=Diggy Liggy Lo
TTITLE3=For The Good Times
TTITLE4=I'll Die Young
TTITLE5=Rose Coloured Glasses
TTITLE6=Neil Diamond Medley
TTITLE7=The Grand Tour
TTITLE8=Truckers Wallet
TTITLE9=Noreen Bawn
TTITLE10=Love Bug Medley
TTITLE11=Can't Help Believing
TTITLE12=He Stopped Loving Her Today
TTITLE13=Suspicious Minds
EXTD=
EXTT0=
EXTT1=
EXTT2=
EXTT3=
EXTT4=
EXTT5=
EXTT6=
EXTT7=
EXTT8=
EXTT9=
EXTT10=
EXTT11=
EXTT12=
EXTT13=
PLAYORDER=
